<svg width="542" height="80" viewBox="0 0 542 80" fill="none" xmlns="http://www.w3.org/2000/svg">
<path d="M541.5 39.8693V4.60547C541.5 2.12019 539.485 0.105469 537 0.105469C534.515 0.105469 532.5 2.12018 532.5 4.60547V27.6822C532.5 35.7366 528.979 43.3883 522.861 48.6275L513.039 57.0392C503.979 64.7985 492.444 69.063 480.516 69.063H60.5868C47.9948 69.063 35.8664 64.3119 26.6249 55.7589L18.988 48.691C13.2577 43.3876 10 35.9339 10 28.1261V4.85547C10 2.23212 7.87335 0.105469 5.25 0.105469C2.62665 0.105469 0.5 2.23212 0.5 4.85548V39.8693C0.5 61.8303 18.3029 79.6331 40.2638 79.6331H501.736C523.697 79.6331 541.5 61.8303 541.5 39.8693Z" fill="white"/>
</svg>
